<?xml version="1.0" encoding="UTF-8"?>
<svg id="Layer_1" xmlns="http://www.w3.org/2000/svg" version="1.1" viewBox="0 0 1024 464">
  <!-- Generator: Adobe Illustrator 29.0.0, SVG Export Plug-In . SVG Version: 2.1.0 Build 186)  -->
  <defs>
    <style>
      .st0 {
        fill: #fff;
      }
    </style>
  </defs>
  <path class="st0" d="M934.623,229.138c-.316-2.606-1.592-3.985-1.925-6.053-.144-.892.583-11.911-2.053-8.446l.5,28.01c2.179-3.611,4-9.205,3.478-13.511Z"/>
  <path class="st0" d="M150.693,361.698l-2.077,3.436c.019,1.677,3.473,2.059,2.034,5.501.539.678,3.914-1.779,3.995-1.996.056-.406.125-.832.194-1.264,0-2.824-2.345-6.845-4.146-5.677Z"/>
  <path class="st0" d="M796.654,455.641l3.99.989c-7.224-7.166,3.193-13.116,4.019-18.48.555-3.605-3.582,1.471-3.01-1.997l4.982-3.513.997,1.992,2.003-6.992-3.497,1.993c-2.305-4.224,3.019-6.434,3.977-7.957.324-.516-.4-5.579.541-7.031l.999,3.989,1.98-1.99c.177,3.364-1.237,6.495-1.779,9.725-.356,2.123.592,1.183,1.78,1.271l3.48-17.054,4.524.048-3.646-3.817-7.358-2.192,1.021-3.981.993,1.988c2.481,2.004,5.09-8.223,5.008-9.987,1.764-.256.988,2.265.764,3.262-.572,2.543-2.274,4.854-1.77,7.727l3.002-5.002,1.985,1.014c-.19-2.177-.386-7.492.05-9.36.237-1.016,2.257-.83,2.79-2.29.356-.975,1.716-8.66,1.857-10.138.297-3.111-.21-6.151-.684-9.214l2.991-.011,3.016,64.003c2.298-3.859,7.426-3.19,10.016-6.737,2.013-2.756,2.413-7.646,3.927-10.857,2.67-5.667,5.74-6.151,7.027-15.014.354-2.439-2.363-5.343,1.008-6.388l.999,2.991,3.008-3.497-3.844-4.813c2.313-3.796,3.447-7.127,2.856-11.68l2.985,1.001c1.311-2.844,1.375-19.944,3.506-19.982,2.762,2.583,1.141,7.03,1.509,10.471.558,5.217,1.086,19.42,1.967,22.812.279,1.074,2.452.95,2.925,2.347.523,1.544-.814,7.113.107,9.357l1.984-1.013.503,5.002c2.603-2.032,4.351-2.04,3.515-5.99.891-1.117,1.202,4.142,2.505,1.01.701-1.684,2.176-11.058,1.477-12.024l-1.985,1.017.002-7.006c.186-.247,5.21,4.548,5.005.487l-3.004-6.488-.998,4.992-1.985-5.503c.981-1.909,2.424-.514,3.329-.765,3.993-1.106.54-7.24-1.857-1.711l-.546-1.246-2.949-.762.007,6.987-2.027-9.479c.672-1.153,3.025,1.498,3.521,1.462,2.807-.203.451-6.484-.506-7.966,2.255-1.186,2.424,4.667,3.989.475,1.052-2.817-5.081-.907-5.995-1.492l.012-4.991,5.983,2.997-2.002-8.993-.995,4.99-4.991-.989-.997,2.988c1.193-7.279-1.007-12.621-3.02-19.482-.008-.639,4.106.98,3.005-3.003-.638-2.307-3.84-.377-4.987-.954-1.506-.758-3.362-5.117-7.292-6.758-16.391-6.848-27.748,14.586-10.731,21.702-.989,2.369-6.574,1.27-7.737.269-1.22-1.05-.693-3.822-1.32-4.989-.813-1.515-3.202-2.201-3.553-5.772-.241-2.45,1.694-3.091,1.478-4.328-.158-.909-1.783-1.835-1.793-2.189-.037-1.379,8.942-3.362,5.949-8.495,4.288,2.202,5.361-2.788,3.983-5.979l9.008-1.006-6.849,2.133.345,3.848c1.486-1.933,4.062-1.392,5.74-2.072.89-.36.794-1.888,1.413-1.964,1.55-.189,3.556,1.404,5.352,1.045-1.608-5.934,6.435-.552,8.502,1,13.212,9.918,15.87,25.302,19.676,40.386l2.819.612c-1.3,3.852.682,6.577,2.077,9.973,4.192-1.134,4.053-4.156,1.947-7.403l3.971-3.549c-1.927.172-3.068-3.363-4.002-5.012l-1.977,1.986,1.002-4.992,4.007,4.976,1.953-.03.192-1.714,1.823.772c1.133-4.349.809-8.324-.732-12.544l1.735-1.462.997,2.993.022-5.987,1.981,1.99c1.361-3.132-.677-7.097-.579-8.439.168-2.294,3.573-6.278,3.665-6.994.371-2.911-.402-6.526-.086-9.562-3.657,1.338-6.055,3.922-6.001,7.999l-3.981-3.512,1.984-.476,1.016-12.012,2.989.994c-2.07-5.005.654-9.444.683-14.671.01-1.757-1.363-3.558-1.259-4.806.098-1.168,2.528-3.292,1.574-5.51l-2.99-.01-1.008,5.503.443-6.575,3.529-1.007c-1.196-5.299,2.272-12.25-1.949-16.418l2.969-1.495c2.932,10.556,6.624,20.945,7.022,31.993,1.582.254,1.135-1.805,1.326-2.905,1.123-6.48.65-13.038,1.65-19.501-2.491-1.05-2.192-2.034-1.981-4.584,2.543-.446,1.804.386,2.446,1.996,2.546,6.382,3.699,15.221,5.558,21.999,3.803-.672,2.177-10.176,2.998-10.991l3.998-.015c-1.329-5.927-.386-13.101-3.903-17.359l3.892-3.629.011,9.991c2.941.263,3.116-2.194,3.089-4.483-.072-6.041-1.255-10.519-2.998-15.27-1.682-4.583-.241-11.382-1.323-16.516-.503-2.387-2.759-4.901-2.806-6.213-.028-.773,1.652-.392,2.057-1.168,2.696-5.153-.04-9.913.958-13.688.279-1.054,1.961-.569,2.018-.659.26-.418-.208-2.201.007-3.015l1.994-.982-3-.006v-2.994s3-.006,3-.006c1.013-2.453-1.33-1.736-1.622-2.203-.969-1.552-2.035-4.961-2.932-6.7-.517-1.003-5.548-6.426-.455-4.087l1.003-14.001-2.934.574,1.439-3.59,1.49,2.006c.414-4.876.554-7.16-3.995-9.51l3.002-3.99c-2.815-2.532-2.985-3.131-6.996-1.461l1.989,17.961-1.979-4.99-4.525,17.985-.604-14.37-3.875-1.631c-.03-1.954,2.866-1.417,3.984-.99l-3.133-11.85c-5.285-.309-10.045.483-14.353,3.856-8.707,6.818-1.299,12.793-.518,21.502.792,8.828-2.821,24.871-12.698,27.286-1.08.264-6.121,1.129-6.283-.782,2.58.693,9.561-3.005,10.508-5.008.694-1.468.145-3.42.55-4.248.517-1.056,3.418-1.914,2.921-4.196-.337-1.544-3.98-.74-2.975-3.558l2.984.999c-.187-2.996,2.703-6.928-1.988-6.996l-.995,4.99c-1.914-3.925,1.973-9.731,2.03-11.483.018-.556-1.678-.32-1.995-1.231-1.133-3.255-.461-3.405-2.08-6.99-.706-1.564.182-3.186-1.47-4.286-.289,7.926-4.117,17.858-11.794,21.187-12.071,5.235-26.137-3.635-19.693-17.181-6.749.127-5.447-6.693-11.432-9.081-8.128-3.242-16.463,3.576-12.576,12.06-2.52.365-3.52-2.512-4.055-4.431,2.791-.8,1.991-3.327,3.183-4.915,3.574-4.762,6.788-5.974,12.817-5.752l.088-2.849c13.184-1.559,12.719,21.342,19.987,24.43,4.62,1.963,10.883-.359,11.994-5.466l2.479,2.988,3.521-3.495-1.825-.605.718-2.324-2.825-.64-1.069-8.927,2.006,6.357,2,.123c-1.125-4.872-.482-9.781-5.013-12.99,1.384-1.024,2.54.192,1.995-2.489-1.85.248-3.341.113-3.014-1.997l-1.974,3.986c.218-9.901-8.099-4.717-14.003-4.488,4.289-5.988,5.896-9.134,14.471-7.476,1.944.376,2.537,2.231,4.517,1.965.581-4.474.918-6.833-.986-10.994l3.941-.583-1.941-6.417,2.495,1.997.607-1.825,2.884.834c1.938-2.186-.798-9.562-.566-10.018,1.459-2.866,13.311-7.151,16.789-8.249,3.087-.975,7.381.764,5.667-4.145-.397-1.136-1.775-1.515-2.882-1.621,3.596-4.328-1.018-8.087-1.011-12.971-2.066-.812-4.478,4.289-5.988,2.993-1.29-1.107,4.534-4.123,2.98-6.433l-3.973-12.554c-2.259,2.627-2.214,5.114-3.343,7.688-.143.325-1.512.363-2.195,2.238-2.871,7.875-2.731,17.589-6.281,25.758-4.622,10.636-15.392,18.391-27.187,18.298l9.349-4.136,2.646-2.844c-3.369-.997-2.657,1.989-4.891,2.559-4.009,1.022-11.954.191-14.853-2.818-1.768-1.835-.751-5.089-1.289-7.053-.29-1.059-3.472-.68-.881-6.912.592-1.424,3.858-1.747,1.922-5.783,4.468,3.003,4.348-2.591,8.985-3.016l-2.987-1.977c3.423-.059,8.096-.726,9.995,2.98-22.453.491-18.862,31.163,1.523,15.023l3.986,2.013,1.482-2.029,1,1.999c-1.02-3.756,2.364-6.597,2.546-9.894.083-1.503-1.021-2.389-1.057-3.591-.066-2.225,1.845-6.179,3.016-1.514l1.501-2.991-5.99-1.002-.997,7.991v-12.99l1,3.995,2.97-1.988c-.323,2.405,2.382,2.159,4.012,2.987l.006-5.991c-2.204-.177-3.25-.408-3.012,1.982l-3.997-3.489c-.131-1.662,4.738,1.325,5.039-4.11.075-1.362-5.438-5.431-4.018-7.39l3.984,1.995-.964-6.471c4.525-1.398,6.443-4.924,5.475-9.519l-3.495,2.995v-4.995s1.483,1.99,1.483,1.99c2.227-1.43,4.122-1.872,3.497-4.995l-2.979,1.999-.02-11.999-2.882.965-4.615-4.959-.504,4.988-1.977-1.988c-1.698,3.275.278,5.928-.189,9.28-.377,2.709-2.669,2.227-2.893,4.161-.789,6.804-1.047,13.861-1.915,21.068-.432,3.594,1.929,11.186-3.008,11.484l-1.053-4.433,2.097-1.128c-1.108-4.855-4.088-10.706-2.053-15.43l-3.991.988c.086-3.328.583-10.801-3.997-8.996-.754-2.28,3.178-3.268,2.862-5.316-.176-1.14-2.679-3.2-3.308-4.771-1.12-2.798-1.021-8.499-3.712-11.743l-4.842.828c-.647-3.209,3.202-2.861,4.981-2,1.071-3.473-2.197-3.254-3.038-4.702-3.17-5.457-1.997-12.04-9.458-15.293l-1.482,1.988-2.508-4.987c-4.141,1.789-.429,17.451-.611,20.551-.089,1.502-1.805,2.685-1.952,4.893-.754,11.312-.045,23.589-.897,35.095-.401,5.409-2.862,6.163-2.569.45.525-10.245-2.031-11.571-4.24-19.729-1.222-4.514,1.131-11.571-5.225-13.265l-.999,5.994-2.516-4.99-1.483,1.99c-3.061-6.215,8.244-3.598,10.983-7.982-3.819.231-4.31-1.549-3.999-5.016l-2.985,2c1.269-1.876-3.227-16.683-6.01-13.985,1.806,5.43,3.75,11.056,4.812,16.697.365,1.939-.145,1.26-1.802,1.295-.472-.496-2.422-11.403-3.227-13.32-.536-1.276-4.45-3.456-4.759-6.189l5.951-1.986-1.475-2.519-.995,2.008-6.487-5.496,2.591-3.551c-3.44-3.158-4.297-8.296-7.666-10.482l3.054-4.972-1.994-1.486,1.998-2c-2.572-.621-7.972-.058-8-4.009h-8l9.978,14.507c-6.933,2.436-6.023,6.682-8.473,12.488-4.872-3.894-5.872-11.5-11.989-13.994-1.882.444-3.585,12.381-3.548,14.531.049,2.864,2.202,4.923,2.591,7.417,2.372,15.227,5.526,30.674,8.201,45.803.214,1.211,1.051,4.002-1.25,3.253-1.049-.341-3.605-17.126-8.015-19.003l-.991,1.994-2.501-2.501c5.87-2.587,3.447-9.258.491-13.49l-1.482,3.988c-.553-4.653,1.011-11.442-4.005-14.413-.566-.335-1.943.505-2.001.421-.236-.344,1.754-5.136-3.996-6.001-.476,3.947,7.163,10.271,7.049,12.469-.015.283-3.585,1.046-2.069,4.526l-3.982-4.008,1.98-2.47c-7.149-5.506-3.577-12.766-4.502-18.681-.347-2.218-2.985-2.062-3.279-3.415-.196-.9,1.002-2.31.355-3.418-.589-1.007-5.048-3.645-4.576-.5.537,3.58,5.056,8.388,4.52,12.491l-6.501-6.5,1.917-1.857c-1.225-3.789-4.377-4.503-3.933-8.631l-1.483,2.988-6.5-9.5c2.453-1.255,4.757,1.039,4.005,3.499l1.485-2.989,5.495,7.99c1.657-8.038-5.19-10.943-7.99-16.995h-450c-1.453,3.333-5.527,4.42-7.241,7.276-1.823,3.036-1.154,9.719-1.759,10.724,1.401-2.679,3.389-5.732,5.505-7.995l.482,6.988-1.976-3.987c.855,3.99-2.442,5.506-3.288,7.251-1.67,3.446-1.938,8.81-5.714,10.742,1.144-4.029,3.081-9.348,4.99-13-.188.311-4.756,1.154-4.5,5.01-2.089-1.447,1.049-5.925-2.494-5.017l-1.998,10.015,1.983-1.017-.032,1.979-2.018.582c3.009,5.733-4.076,9.391-2.958,15.909l4.01,1.527c-1.501.146-3.995.386-5.03,1.479-1.248,1.317-.181,3.662-1.954,3.528,1.52-3.449-2.055-4.254-2.068-4.538-.113-2.561,4.65-6.879,5.062-9.971.261-1.958-.373-1.584-1.989-1.483.371,4.452-4.687,6.489-5.905,8.823-.694,1.33-4.754,11.832-4.948,12.921-.955,5.384,3.991,6.362,3.833,6.747l-2.496,2.351-2.488-1.844c-1.058,4.967-3.77,9.305-5.485,14.029-.638,1.759.719,5.026-2.517,5.968,1.532-13.229,2.753-26.559,7.059-39.252.263-.775,1.788-.701,1.792-1.192.022-2.803-1.531-6.066-.801-10.003.49-2.644,2.941-4.435,2.947-8.045.004-2.255-1.362-13.011-3.536-13.51-5.712,2.368-7.24,8.736-10.976,13l-.654-1.754-1.828.764c-.439-5.517-1.926-8.381-7.012-10.522L242.645-.36h-10l-3.045,5.996-3.954-.987,2.153,3.86,1.837-.869-4,12.995-1.977-1.988-1.989,4.499c2.124,3.144,7.169-.815,5.966,4.488-1.657.442-.482-1.821-1.584-2.055-6.204-1.315-4.43,7.112-9.4,6.07l4.547,2.97-.56,3.028-2.991-1.014-1.018,2.524,1.987.915c-.811,2.962-2.637,5.25-5.972,5.557l2.505-10.985c-3.065,1.58-1.854,4.362-2.576,6.264-.315.828-1.515.782-1.577.961-.261.764-.59,6.576-.814,6.838l-3.538.943,1.998,2.979c-1.425-.62-3.069.878-1.997,1.996.898.935,8.708.983,7.988,5.013l-2.98-1.009-2.001,4.005-1.994-4.991c-1.371,4.795-4.633,9.96-2.018,14.988l-2.99-1-.674,2.823-2.833,20.164c-1.824-1.2-1.414-2.645-1.544-4.435-.569-7.785-.575-15.567-.899-22.999-.207-4.749-.549-36.42-2.069-37.543l-3,4.99-1.482-1.988c-10.048,3.986-5.144,12.25-12.501,18.501l5.951,1.963-1.946,3.527-.473-2.835-3.527-1.16-1.019,7.004-1.982-1.009c-.447,2.196-.053,4.532-.785,6.677-1.367,4.005-5.742,3.577-1.225,8.853-3.263,1.904-.761,3.837-5.996,3.486l.007,2.984,1.485-1.991,1.495,6.996-3.98-2c-1.074,6.631.2,15.065-2.515,20.995l-2.485-15.504c-.882-4.911,1.137-13.454.013-17.792-.271-1.046-2.397-.954-2.873-2.317-.788-2.258.447-9.604-.156-10.376l-2.985,1.989.981-4.994c-3.87.919-7.555,5.309-8.582,8.987-.876,3.137,1.379,5.726,1.545,8.65.105,1.852-.829,3.464-.737,4.868l.781,11.929,3.005.569-2.996,3.992c2.443.139,3.578-1.052,4.494-3.006,2.702,2.801.807,5.795.582,8.649-.098,1.24.907,2.699.723,3.211-.041.115-1.389.201-1.774.854-2.892,4.899,3.819,2.495.964,8.291l4.014.01-2.01,5.977c1.798,1.892,6.541,1.266,7.057,1.547.548.298.736,1.917,1.684,2.496,5.814,3.555,12.356,7.409,19.258,4.469,7.341-3.127,8.112-11.162,1.32-15.379-2.6-.762-3.131,1.751-4.31,3.402-2.572,2.022-3.557-7.281,3.298-7.237,1.511.01,6.561,1.856,7.394,3.017,1.11,1.546,3.703,12.914.316,13.323,2.382,1.85-3.937,6.293-5.844,7.267-4.5,2.298-8.581,3.809-13.113,1.032l.722-1.412-2.78-.497,3.001,5.98c-18.83-3.389-30.315-20.024-34.014-37.983l-1.977,6.988-.032-6.32-2.968-2.676c.057,2.166-1.327,4.264-1.04,6.446.252,1.913,2.382,2.541,2.02,4.561l-1.996-.504c-.464,3.41.537,10.04-.205,13.014-.159.636-1.778.415-1.816,1.049-.114,1.916,1.751,7.483,2.075,9.88l-2.056,1.033c3.159,7.554,8.082,15.437,16.988,15.55-.089,3.669,2.648,6.869,4.016,10.482.259.684-1.433.231-1.94,1.235-2.656,5.269-1.447,7.014-9.049,5.242,1.222-2.258,4.92.195,6.496-2.982,4.302-8.671-8.357-12.485-13.002-16.007-14.493-10.986-11.105-27.827-11.509-44.005l-1.984,1.013c.652-3.458-.938-7.631-5.003-8.002.014,4.585-1.097,7.732.988,11.992-7.72-2.988-10.673,3.821-5.994,9.98l-3.013,3.016-1.977-1.987c.071,2.157-.193,4.363-.038,6.526.241,3.353,2.768,3.437-1.752,3.625-2.003,3.357.821,6.32.871,9.407.03,1.869-3.265,1.336-2.083,4.444l1.984-1.012,2.513,7.001,1.505-7.99,1,4.994,4.504-4.991,2.533,3.385c-1.164,1.043-1.971.639-2.569,2.549-1.831,5.853-.577,17.828-2.526,24.339-.157.524-4.243,2.65-1.506,6.798.974,1.477,4.402-.291,3.556,2.915l-4.002.005v16l1.992-1.006.003,3.001-2.967-.004c-1.302-1.073-1.612-14.816-5.913-15.432l2.88-26.553c-5.817.451-1.247,7.396-4.499,9.99l-.506-6.995c-3.016,1.767-.317,8.041-1.984,11.413l1.985,1.572c-3.311-.487-1.459,2.572-2.041,4.434-.892,2.853-4.015,4.869.052,6.071l-2.102,4.038c-.033,2.371,2.938.47,2.083,3.464l-1.979.503,2.987.504-2.981,14.001,5.98-4.995c.424,2.608-2.008,4.023-2.102,6.525-.043,1.128,3.879,2.942,2.102,6.465-1.831-.075-.786-2.688-2.391-4.094-1.104-.968-2.206-1.037-3.596-.894,1.354,5.471-1.69,13.069,2,17.504l-2.031.982-.003,2.002,3.013,1.994c-3.443,3.705-3.005,10.066-3.031,15.05-.011,2.085,1.214,4.287,1.056,5.937-.182,1.905-2.381,2.497-2.001,4.517.695.659,5.177-1.444,5.711-2.276,1.055-1.642.035-5.994,2.274-6.714-.178,1.966.487,4.574-.137,6.38-.538,1.557-3.296,1.143-2.962,3.1l3.109,6.505-6.996-4.984c1.044,3.719-.057,6.95,3.991,8.503l-2.984-.505.742,3.988,1.261.507-2.036,1.141.021,8.363c2.771-.061,4.739,1.052,5.502-2.017l1.877,1.932c12.741-4.665,5.517-16.238,5.535-25.415.021-10.856,9.025-25.081,20.557-25.546,1.098-.044,3.796-.626,3.527,1.032-2.567-.313-8.293-.006-9.731,2.341-1.063,1.735,1.069,3.49-2.075,1.878-2.828,1.798-.935,5.586-1.182,5.784-.458.366-2.373-.9-3.34,1.202-1.708,3.715,1.333,7.573-3.652,9.303l1.984,2.007-2.048.998c-.459,2.843,2.7,3.885,2.763,4.995.027.471-1.035,1.136-1.043,1.483-.115,5.055,1.953,1.586,2.32,2.012,1.933,2.246-2.485,1.525-1.986,2.996l3.045.627.955,11.378c3.855.65.685-1.932,1.214-2.828.152-.257,3.087-.392,1.79-4.162l1.485,2.99c3.954-5.488,14.121-9.489,19.884-5.067.91.698.468,2.313.921,2.709,2.552,2.23,10.69,6.605,13.971,6.172,6.971-.919,10.817-9.974,4.729-14.799,1.124-.998,5.688,2.84,5.805,3.148.88,2.324-3.671,13.065-7.61,13.29l.8,3.547h-3.003s-.973-3.983-.973-3.983l-2.028,4.988c-8.651-.708-14.228-14.463-23.037-6.544-10.58,9.51-.685,28.138,12.55,17.55,1.121.471-2.566,6.627-2.991,7.01-2.785,2.509-14.276.889-17.504-2.015-1.456,4.728,2.969,3.597,2.982,6.997l-2.983-.996-.021,3.361c5.552,2.138-1.96,5.474-.998-.363-4.804,1.146.855,9.118.005,9.995-1.783.574-2.329-1.47-3.624-1.729-1.508-.302-4.397,1.311-6.366.745l6.041,4.519c2.256.007,9.686,2.171,9.991,4.971.567,5.217-3.568,1.884-6.312,2.649-1.044.291-3.923,3.29-4.766,4.33-1.582,1.953.172,4.619-2.95,2.515-.7,2.754,1.456,1.367,2.174,3.353,1.513,4.182,1.079,10.248,2.83,14.646l1.977-1.987,1.009,4.985-2.99-1.985,1.002,4.992c3.705-1.972,5.263-4.923,5.488-9.008.875-.002.122,9.863,4.488,9.007,6.694-17.844-3.979-46.007,23.528-48.984,1.041-.113,4.671-.778,4.479.977l-8.086,1.52.092,2.484-4.75.235c-1.492,3.978-5.057,6.629-4.25,11.267l-1.993-.503c-.92,2.685,1.503,1.742,1.776,2.138.167.242-1.111,4.349.228,5.868l1.998-7.993.994,4.001c3.405.544,4.532-2.699,7.301-4.2,5.955-3.229,10.775-4.585,17.69-3.795l-5.99,1.485c2.491,2.841,6.76,2.682,9.744,4.275,2.395,1.278,6.992,8.415,7.252,10.769.055.501-1.618.368-1.811.935-.248.727.832,3.795.539,4.331-.228.417-3.697,2.573-4.398,3.587-.605.876-.213,2.493-.335,2.617-.397.404-2.131-1.072-2.834-.801-.341.131-2.708,3.898-6.155,2.805,1.083,2.688,5.994-.406,7.988-.002.177,1.468-2.609,1.786-3.58,1.895-6.48.726-13.247.285-15.404-6.905,5.205,4.071,12.311,4.392,17.501.011,9.364-7.903,2.347-17.779-8.956-15.951-3.676.594-4.319,3.491-7.555,3.93l1.994-4.495c-2.502-2.157-2.448,2.442-3.249,3.242-.867.865-4.209.488-5.27,2.24-1.391,2.299.232,4.63.042,6.542-.118,1.186-2.181,2.595-1.512,4.476l3.985-2.99v6.99l-.994-3.003c-6.663,1.289.577,4.031,1.023,6.478.732,4.016-.227,8.571-.824,12.266,0,.461-.056.894-.194,1.264-.505,3.627-1.274,7.397-2.013,10.992-2.217-.716.609-5.605-.468-6.992-1.607-2.07-2.219,1.071-3.508.995l-1.497-1.987-5.496,10.516,2.971-1.519.505,5.99,5.495-4.995c-1.776,3.997-2.686,5.556-.998,10.007l-1.984-1.016.003,10.003,1.98-1.99c-1.533,6.001,2.609,4.318,4.025,7.985l-.006-5.989,2.009,2.999c3.857-1.883,1.117-7.998,1.958-11.302.281-1.103,2.579-.684,3.048-3.165.826-4.371-.809-10.472-.467-14.686.418-5.147,3.447-11.05,2.937-16.843,5.479,6.43.466,4.181.492,4.507,1.067,5.571,3.783,10.843,2.022,16.483l1.115-1.766,3.867-.227c-.607,1.892-.464,10.994,1.508,10.979l3.49-3.975c.82,3.303-3.827,5.797-3.772,8.312.049,2.245,2.972,6.43,3.346,9.627.233,1.996-.81,3.714-.576,5.335.297,2.067,5.324,3.405,6.843,1.512.692-.863-.717-3.114,1.16-2.786l1.017,3.983-6.002,1.506c5.499,5.199,4.051,14.285,11.512,17.514l.979-2.006,4.495,5.997c-.072-3.519,1.531-7.243,1.63-10.669.257-8.813-1.278-23.579-.163-31.861.195-1.449,2.387-2.814,2.614-5.989.072-1.001-3.089-19.544,1.922-15.474,1.956,1.589-.541,5.017-.591,5.985-.24,4.611,2.081,10.275,2.609,15.017l2.982-1.007c-1.617,4.776-1.477,15.693,5.004,15.992l-.007-5.988,1.511,3.977,2.489-1.982,1.02,3.986c-3.07.744-7.101,2.07-9.718,3.771-.967.629-1.801-.11-1.287,2.237l4.995.01,1.01,11.99,1.98-3.99c.321,2.349-.073,5.593.242,7.786.534,3.709,2.753-.145,2.546-3.026-.172-2.387-1.885-5.473-1.977-8.11l-2.792-.652c-1.151-2.511,1.999-1.789,2.054-2.551.108-1.5-2.955-4.012.931-3.456.8.973-.11,10.426,3.989,10.021l.008,1.995-1.98.471c1.284.876,1.893,3.26,2.982,3.939,1.045.653,2.851-2.254,1.874,3.485l-2.867.096c-.135,4.99,5.714,6.412,5.917,11.584l-1.914.907c3.918,2.599,6.004,5.918,7.89,10.203l-2.886,5.299,2.984-.996c.538.664-1.881,4.173.524,4.989,2.784.945.332-3.323,2.475-2.985l1.01,5.995h10l-10.998-15.986c7.181.813,5.813-11.195,9.508-10.979,1.487.087,6.005,14.173,10.96,12.96,1.325-.367,3.454-11.798,3.455-13.634.002-3.33-2.677-5.542-3.24-8.56-.919-4.921-.817-7.852-2.207-13.778-2.356-10.042-4.773-22.298-5.476-32.538-.367-5.337,2.759-1.646,3.501,1.511,1.264,5.383,1.935,7.773,5.812,12.698.71.902,2.961,1.424,3.682,2.812-6.239,2.779-3.164,7.652-1.492,12.592l2.488-.098-.983,4.996,1.978-1.987c.707,2.004.822,4.998,1.758,6.758,1.37,2.576,4.162,1.386,2.724,5.242l1.522.994,1-1.999,2.002,1.505c-1.635-3.845-5.912-6.199-6.83-10.27-.658-2.919,2.575-1.775,1.847-5.232,1.808-.092,1.132,2.742,2.212,3.775,1.545,1.477,8.265.664,6.283,4.215l-6.495-2.995c-.723,2.464,2.165,2.309,2.704,3.273,3.982,7.122,1.371,14.169,1.296,21.722l1-2.995c3.683.591,1.788,4.722,2.002,4.932.232.228,2.031.061,2.898.612,3.513,2.233,3.799,9.593,6.646,13.399,2.152,2.877,5.789,3.749,7.444,7.056h445c4.803-5.959,12.443-8.52,10.505-17.995l-3.01,5.99-1.485-2.99c1.183,4.823-2.573,4.472-5.516,6.989-2.505.837,4.931-10.062,4.579-10.953l2.922.969,1.011-6.496c3.585.881,4.989-.584.999-2.008l5.987-5.505-4.99,12.99c1.56,1.557,5.625-5.271,5.011-6.984l2.979,1.995.999-6.001-2.922,1.586,2.924-2.582c-4.105-6.851,2.951-10.868,3.568-14.963.19-1.263-1.56-1.976-1.101-3.022.183-.418,2.66-3.781,3.53-4.013,1.344,4.452,2.996,6.954-2.047,9.613.771,1.713.468,4.06,3.044,3.379,1.494-6.209,5.586-7.788,3.024-14.993l1.977,2.988c.52-5.372,8.326-9.372.021-13.007l.003-.968c3.167.252,1.876-4.39,4.493-6.013l-1.5,5.99c2.882,2.981,5.738-12.291,6.06-13.249.291-.863,1.654-.688,1.85-1.407.183-.669-1.09-3.828.595-4.345,2.265-.694,1.566,2.133,1.39,3.392-.963,6.872-1.928,13.97-3.219,20.795-1.621,8.571-3.172,16.865-4.723,25.278-.466,2.529-2.978,3.659-2.988,7.012-.007,2.249,1.531,13.895,3.62,14.471,5.431-.051,7.66-11.603,10.924-12.932,1.78-.725,1.568,1.107,1.946,1.985,1.934,4.491,1.776,10.329,8.531,7.007l-10.99,17.999h8l6.997-5.504-1.987-2.495ZM922.655,191.645l1.509,8.974,5.482,3.031c.43,3.183-3.683,3.624-5.071,5.424-1.06,1.376-.219,3.678-1.92,3.561-.932-2.93,2.109-4.942,2.1-7.495-.009-2.725-4.048-8.948-2.101-13.495ZM925.297,256.145c.152-1.914-4.565-3.442-2.642-7.501l1.99,3.995v-14h1v16c9.977,1.746-.996,4.841-1.791,6.201-1.027,1.758,1.132,6.136-1.199,6.794-2.115-4.445,2.473-9.37,2.642-11.489ZM287.607,455.095c-4.569-1.595-11.441-18.52-12.952-23.455,5.685,2.92,4.646,11.689,8.982,15.997l.494-2.989,7.509,9.496c-.539.765-3.318,1.2-4.033.951Z"/>
</svg>