<?xml version="1.0" encoding="UTF-8"?>
<svg id="Layer_1" xmlns="http://www.w3.org/2000/svg" version="1.1" viewBox="0 0 994.062 217.9">
  <!-- Generator: Adobe Illustrator 29.0.0, SVG Export Plug-In . SVG Version: 2.1.0 Build 186)  -->
  <defs>
    <style>
      .st0 {
        fill: #fff;
      }

      .st1 {
        fill: none;
      }
    </style>
  </defs>
  <g>
    <path class="st0" d="M1234.796-377.776v199.603H240.734v-199.603h994.062ZM1130.238-261.063c27.45-27.204-5.855-48.613-29.32-59.401-30.619-14.077-67.662-22.504-100.819-28.586-69.606-12.767-142.709-17.967-213.381-18.508-2.45-.019-5.497-.456-7.948-.304-1.781.11-5.111,1.293-4.957,3.41l41.583,1.989c65.969,5.658,135.05,12.773,197.856,34.582,27.916,9.694,102.004,40.425,59.75,78.121-12.402,11.064-31.355,19.069-46.977,24.526-5.06,1.768-19.748,5.157-22.295,9.199-.547.868-.678,2.006.495,2.363,1.096.333,9.925-1.618,11.784-2.003,22.839-4.738,46.963-11.173,68.698-19.558,14.968-5.775,34.092-14.493,45.531-25.829ZM400.928-261.63c-8.52-8.666-13.583-19.828-8.179-31.646,9.623-21.046,46.883-34.362,67.631-41.038,4.108-1.322,11.593-2.631,14.795-5.069,1.673-1.274,4.08-4.304.211-4.064-3.935.245-10.588,2.033-14.722,2.895-32.897,6.857-79.411,18.914-106.651,38.638-42.778,30.975-2.803,56.435,28.376,69.436,29.661,12.368,64.509,20.162,96.159,25.868,66.346,11.962,135.087,16.936,202.601,17.934,4.803.071,12.135.997,16.718.278,1.281-.201,5.638-2.922,3.138-3.384-51.94-1.918-104.04-6.432-155.184-15.678-27.969-5.057-56.106-11.71-82.974-20.892-20.327-6.947-46.816-17.916-61.918-33.277Z"/>
    <path d="M160.194,120.136c15.101,15.362,41.591,26.331,61.918,33.277,26.869,9.182,55.006,15.836,82.974,20.892,51.144,9.247,103.244,13.76,155.184,15.678,2.499.461-1.857,3.183-3.138,3.384-4.583.719-11.916-.207-16.718-.278-67.514-.997-136.255-5.972-202.601-17.934-31.65-5.706-66.498-13.5-96.159-25.868-31.179-13.001-71.154-38.462-28.376-69.436,27.24-19.724,73.754-31.781,106.651-38.638,4.135-.862,10.788-2.65,14.722-2.895,3.87-.241,1.462,2.79-.211,4.064-3.202,2.438-10.687,3.748-14.795,5.069-20.748,6.677-58.008,19.992-67.631,41.038-5.403,11.818-.34,22.979,8.179,31.646Z"/>
    <path d="M889.504,120.703c-11.438,11.336-30.562,20.054-45.531,25.829-21.735,8.385-45.859,14.821-68.698,19.558-1.859.386-10.689,2.336-11.784,2.003-1.173-.356-1.041-1.495-.495-2.363,2.547-4.043,17.235-7.432,22.295-9.199,15.622-5.458,34.575-13.462,46.977-24.526,42.254-37.696-31.834-68.427-59.75-78.121-62.805-21.809-131.886-28.924-197.856-34.582l-41.583-1.989c-.154-2.116,3.176-3.299,4.957-3.41,2.451-.152,5.498.285,7.948.304,70.671.541,143.775,5.741,213.381,18.508,33.157,6.082,70.2,14.509,100.819,28.586,23.465,10.788,56.77,32.197,29.32,59.401Z"/>
  </g>
  <g>
    <path class="st1" d="M630.9,141.01c-.535-.062-1.049-.166-1.53-.315.482.148.995.253,1.53.315Z"/>
    <path class="st1" d="M625.844,137.52c-.153-.458-.244-.962-.264-1.512.019.549.11,1.053.264,1.512Z"/>
    <path class="st1" d="M637.116,139.988c-.777.312-1.552.563-2.314.745.762-.182,1.537-.433,2.314-.745Z"/>
    <path class="st1" d="M626.926,139.28c-.481-.486-.852-1.072-1.082-1.76.23.688.601,1.274,1.082,1.76Z"/>
    <path class="st1" d="M628.672,140.44c-.672-.288-1.264-.674-1.746-1.16.481.486,1.073.872,1.746,1.16Z"/>
    <path class="st1" d="M567.575,73.836c-.273-.012-.553-.013-.842-.004.288-.01.569-.008.842.004h0c5.47.3,7.01,5.48,3.5,11.71-1.56,2.73-3.93,5.34-6.7,7.38h0s0,0,0,0c2.77-2.04,5.14-4.65,6.7-7.38,3.51-6.23,1.97-11.41-3.5-11.71Z"/>
    <path class="st1" d="M662.305,100.864c-.256.575-.546,1.154-.868,1.734.322-.58.611-1.159.868-1.734Z"/>
    <path class="st1" d="M642.82,136.614c-.722.572-1.469,1.101-2.229,1.581.76-.479,1.506-1.009,2.229-1.581Z"/>
    <path class="st1" d="M660.931,103.469c-.353.581-.738,1.161-1.153,1.737.415-.577.799-1.157,1.153-1.737Z"/>
    <path class="st1" d="M570.164,92.35c.256-.575.545-1.154.866-1.733-.321.58-.611,1.159-.866,1.733Z"/>
    <path class="st1" d="M595.354,53.215c.777-.312,1.552-.563,2.314-.745-.762.182-1.537.433-2.314.745Z"/>
    <path class="st1" d="M556.495,103.466l-3.09,13.99c-1.17,5.27-5.63,11.19-11.43,15.16l-77.98,53.39c-2.5,1.71-5.14,2.62-7.26,2.5-1.325-.075-2.373-.544-3.057-1.345.685.801,1.733,1.27,3.058,1.345,2.12.12,4.76-.79,7.26-2.5l77.98-53.39c5.8-3.97,10.26-9.89,11.43-15.16l3.09-13.99c.88-3.66,3.9-7.73,7.87-10.57h0c-3.97,2.84-6.99,6.91-7.87,10.57Z"/>
    <path class="st1" d="M589.65,56.589c.722-.572,1.469-1.101,2.229-1.581-.76.479-1.506,1.009-2.229,1.581Z"/>
    <path class="st1" d="M601.569,52.193c.535.062,1.049.166,1.53.315-.482-.148-.995-.253-1.53-.315Z"/>
    <path class="st1" d="M569.497,94.059c.188-.563.41-1.134.666-1.709-.256.575-.479,1.145-.666,1.709Z"/>
    <path class="st1" d="M618.767,112.149c.567-.388,1.147-.739,1.731-1.048-.584.308-1.164.659-1.731,1.048Z"/>
    <path class="st1" d="M620.498,111.101c.584-.308,1.173-.574,1.759-.791-.585.217-1.174.483-1.759.791Z"/>
    <path class="st1" d="M625.605,135.15c.054-.595.184-1.236.399-1.924-.215.688-.345,1.329-.399,1.924Z"/>
    <path class="st1" d="M568.892,96.534c.08-.534.197-1.081.35-1.636-.153.555-.27,1.102-.35,1.636Z"/>
    <path class="st1" d="M447.093,88.909c-1.322-.553-2.885-.854-4.678-.854h0c1.794,0,3.356.301,4.678.854Z"/>
    <path class="st1" d="M322.375,102.666s0,0,0,0c.02-.69-.43-1.11-1.18-1.09h0s0,0,0,0c.75-.02,1.199.4,1.18,1.089Z"/>
    <path class="st1" d="M260.285,101.586h60.91s-60.91,0-60.91,0c-1.1.03-2.51,1.01-3.18,2.21-.251.45-.363.87-.349,1.219-.014-.35.098-.768.349-1.218.67-1.2,2.08-2.18,3.18-2.21Z"/>
    <path class="st1" d="M303.969,126.964c.022.764-.115,1.619-.425,2.541-.336,1.043-.477,1.98-.455,2.813-.022-.833.12-1.77.455-2.812.31-.923.447-1.778.425-2.542Z"/>
    <polygon class="st1" points="326.565 125.746 326.583 125.728 326.585 125.725 326.566 125.745 326.565 125.746"/>
    <path class="st1" d="M327.655,51.436c2.46-2.01,5.23-3.27,7.58-3.45,2.36-.19,4.07.72,4.69,2.49l9.86,28.18c.347.992.476,2.107.401,3.302.076-1.196-.053-2.31-.401-3.303l-9.86-28.18c-.62-1.77-2.33-2.68-4.69-2.49-2.35.18-5.12,1.44-7.58,3.45-3.437,2.86-5.587,6.579-5.666,9.487.079-2.908,2.229-6.626,5.666-9.486Z"/>
    <path class="st1" d="M328.085,118.456c.117.508.172,1.049.165,1.619.007-.57-.047-1.112-.165-1.62-.192-.74-.239-1.556-.15-2.424-.089.868-.043,1.685.15,2.425Z"/>
    <path class="st1" d="M328.215,120.609c-.009.113-.009.223-.022.338.013-.115.013-.225.022-.338Z"/>
    <path class="st1" d="M238.965,94.076c6.51-6.02,14.4-9.69,20.66-9.63h68.23c1.1-.03,2.51-1.01,3.18-2.21.251-.45.363-.869.349-1.219.014.349-.098.768-.349,1.218-.67,1.2-2.08,2.18-3.18,2.21h-68.23c-6.26-.06-14.15,3.61-20.66,9.63-6.51,6.01-10.64,13.44-10.81,19.46h0c.17-6.019,4.3-13.449,10.81-19.459Z"/>
    <path class="st1" d="M330.785,140.537c-.593-.254-1.109-.586-1.533-1.001.424.415.939.747,1.533,1.001Z"/>
    <path class="st1" d="M423.455,107.446c-.67,1.2-2.08,2.18-3.18,2.21h0c1.1-.03,2.51-1.01,3.18-2.21.67-1.2.35-2.18-.72-2.21l-.01-.01h0l.01.01c1.07.03,1.39,1.01.72,2.21Z"/>
    <path class="st1" d="M478.035,106.346c-.76.69-1.23,1.55-1.25,2.25-.02.69.44,1.11,1.18,1.09h0c-.74.02-1.2-.4-1.18-1.09.02-.7.49-1.56,1.25-2.25s1.67-1.11,2.39-1.09h0c-.72-.02-1.63.4-2.39,1.09Z"/>
    <path class="st1" d="M527.597,127.702c.003.023.012.042.014.066-.002-.024-.011-.043-.014-.066Z"/>
    <path class="st1" d="M495.685,96.676c-2.63,4.74-8.24,8.58-12.53,8.58h0c4.29,0,9.9-3.84,12.53-8.58s1.29-8.58-3-8.58h0c4.29,0,5.63,3.84,3,8.58Z"/>
    <path class="st1" d="M527.372,127.165c.007.009.019.014.026.023-.007-.009-.018-.014-.026-.023Z"/>
    <path class="st1" d="M329.615,129.355c1.53-2.68,3.86-5.26,6.58-7.29,4.07-2.96,7.16-7.15,8.06-10.92l3.03-13.73c1.16-5.27,5.62-11.18,11.42-15.15l77.98-53.39c2.573-1.755,5.286-2.664,7.433-2.49-2.148-.174-4.86.735-7.433,2.49l-77.98,53.39c-5.8,3.97-10.26,9.88-11.42,15.15l-3.03,13.73c-.9,3.77-3.99,7.96-8.06,10.92-2.72,2.03-5.05,4.61-6.58,7.29-2.413,4.283-2.439,8.065-.443,10.112-1.997-2.046-1.971-5.828.443-10.112Z"/>
    <path class="st1" d="M606.626,55.683c.153.458.244.962.264,1.512-.019-.549-.11-1.053-.264-1.512Z"/>
    <path class="st1" d="M331.913,140.895c.379.082.774.146,1.202.17.274.012.556.013.846.003-.29.01-.572.009-.846-.003-.428-.024-.823-.088-1.202-.17Z"/>
    <path class="st1" d="M373.527,87.866c-.17-.115-.289-.278-.354-.477.065.199.184.362.354.477Z"/>
    <path class="st1" d="M373.527,87.866c.157.106.363.166.604.181-.241-.015-.446-.075-.604-.181Z"/>
    <path class="st1" d="M663.685,94.366c.135,1.965-.355,4.198-1.38,6.497,1.025-2.3,1.515-4.533,1.38-6.497h0Z"/>
    <path class="st1" d="M736.345,74.996c-2.63,4.74-8.24,8.58-12.53,8.58h0c4.29,0,9.9-3.84,12.53-8.58s1.29-8.58-3-8.58h0c4.29,0,5.63,3.84,3,8.58Z"/>
    <path class="st1" d="M698.775,84.666c-.76.69-1.23,1.55-1.25,2.25-.01.69.43,1.11,1.18,1.09h0c-.75.02-1.19-.4-1.18-1.09.02-.7.49-1.56,1.25-2.25.75-.69,1.66-1.11,2.38-1.09h0c-.72-.02-1.63.4-2.38,1.09Z"/>
    <path class="st1" d="M707.875,59.976c-1.26,3.72.25,6.37,3.68,6.44h0c-3.43-.07-4.94-2.72-3.68-6.44,1.613-5.156-1.547-7.702-5.714-7.844,4.167.142,7.327,2.687,5.714,7.844Z"/>
    <path class="st1" d="M701.225,88.096c-.26-.05-.53-.08-.81-.09h0c.28.01.55.04.81.09h0Z"/>
    <path class="st1" d="M765.095,94.366c-.27-3.93-3.01-6.27-7.33-6.27h0c4.32,0,7.06,2.34,7.33,6.27h0c.27,3.93-1.96,8.93-5.97,13.4h0c4.009-4.471,6.239-9.47,5.969-13.4Z"/>
    <path class="st1" d="M606.864,58.053c-.054.595-.184,1.236-.399,1.924.215-.688.345-1.329.399-1.924Z"/>
    <path class="st1" d="M657.715,107.766c.752-.838,1.441-1.695,2.063-2.559-.622.865-1.311,1.722-2.063,2.56h0Z"/>
    <path class="st1" d="M751.985,121.976c.5,2.04-.03,4.66-1.5,7.38-3.41,6.24-10.7,11.41-16.51,11.71-.286.012-.568.013-.846.004.278.009.56.008.846-.004,5.81-.3,13.1-5.47,16.51-11.71,1.47-2.72,2-5.34,1.5-7.38-.81-2.84.67-6.9,3.86-10.56l3.299-3.669h0s-3.299,3.669-3.299,3.669c-3.19,3.66-4.67,7.72-3.86,10.56Z"/>
    <path class="st1" d="M599.745,83.576c-.54-.015-1.187.217-1.793.626.606-.408,1.253-.641,1.793-.626Z"/>
    <path class="st1" d="M643.884,135.725c1.739-1.532,3.296-3.308,4.507-5.212-1.211,1.904-2.768,3.679-4.507,5.212Z"/>
    <path class="st1" d="M629.292,81.064c-.567.388-1.147.739-1.731,1.048.584-.308,1.164-.659,1.731-1.048Z"/>
    <path class="st1" d="M606.626,55.683c-.46-1.376-1.483-2.344-2.828-2.92,1.345.575,2.368,1.544,2.828,2.92Z"/>
    <path class="st1" d="M588.585,57.478c-1.739,1.532-3.296,3.308-4.507,5.212,1.211-1.904,2.768-3.679,4.507-5.212Z"/>
    <path class="st1" d="M627.561,82.111c-.584.308-1.173.574-1.759.791.585-.217,1.174-.483,1.759-.791Z"/>
    <path class="st1" d="M663.685,94.366h0c-.27-3.93-3.01-6.27-7.33-6.27h-56.54c-.26-.05-.53-.08-.81-.09h-1.71c-.75.02-1.19-.4-1.18-1.09.02-.7.49-1.56,1.25-2.25.188-.172.385-.328.587-.464.606-.408,1.253-.641,1.793-.626h22.66c1.073,0,2.228-.24,3.398-.674.585-.217,1.174-.483,1.759-.791s1.164-.659,1.731-1.048c2.267-1.552,4.328-3.698,5.643-6.068,2.63-4.74,1.29-8.58-3-8.58h-21.79c-3.43-.07-4.94-2.72-3.68-6.44.215-.688.345-1.329.399-1.924.027-.298.035-.584.026-.858-.019-.549-.11-1.053-.264-1.512-.46-1.376-1.483-2.344-2.828-2.92-.224-.096-.457-.181-.698-.255-.482-.148-.995-.253-1.53-.315-.535-.062-1.093-.081-1.664-.057-.726.037-1.476.151-2.238.333s-1.537.433-2.314.745c-1.165.468-2.336,1.074-3.475,1.793-.76.479-1.506,1.009-2.229,1.581-.361.286-.716.583-1.064.889-1.739,1.532-3.296,3.308-4.507,5.212-.242.381-.47.767-.684,1.157-.365.68-.672,1.354-.92,2.014-.372.99-.61,1.949-.707,2.852s-.054,1.749.138,2.514c.81,2.84-.67,6.9-3.86,10.56l-3.3,3.67c-1.5,1.672-2.751,3.421-3.715,5.16-.321.58-.611,1.159-.866,1.733s-.479,1.145-.666,1.709c-.094.282-.179.561-.255.839-.153.555-.27,1.102-.35,1.636-.12.802-.158,1.576-.107,2.313.034.491.106.958.215,1.398.164.66.411,1.261.734,1.798.216.358.466.687.749.987.283.299.598.569.944.807.346.238.723.445,1.128.618.609.26,1.282.447,2.016.554.489.072,1.004.108,1.544.108h4.68c.26.05.53.08.81.09h53.57c.75-.02,1.19.4,1.18,1.09-.02.7-.5,1.56-1.25,2.25-.76.69-1.67,1.11-2.39,1.09h-7.06c-1.073,0-2.228.24-3.398.674-.585.217-1.174.483-1.759.791-.584.308-1.164.659-1.731,1.048-2.268,1.553-4.328,3.698-5.643,6.068-2.63,4.74-1.29,8.58,3,8.58h6.2c3.43.06,4.94,2.71,3.68,6.43-.215.688-.345,1.329-.399,1.924-.027.298-.035.584-.026.858.019.549.11,1.053.264,1.512.23.688.601,1.274,1.082,1.76.481.486,1.073.872,1.746,1.16.224.096.457.181.698.255.482.148.995.253,1.53.315.535.062,1.093.081,1.664.057.726-.037,1.476-.151,2.238-.333.762-.182,1.537-.433,2.314-.745,1.165-.468,2.336-1.074,3.475-1.793.76-.479,1.506-1.009,2.229-1.581.361-.286.716-.583,1.064-.889,1.739-1.532,3.296-3.308,4.507-5.212.242-.381.47-.767.684-1.157,1.47-2.72,2-5.34,1.5-7.38-.81-2.84.67-6.9,3.86-10.56l3.299-3.669-.019.019s0,0,0,0h0c.752-.838,1.441-1.694,2.063-2.559.415-.577.799-1.157,1.153-1.737.177-.29.346-.581.506-.871.322-.58.611-1.159.868-1.734,1.025-2.3,1.515-4.533,1.38-6.497Z"/>
    <path class="st1" d="M571.075,85.546c3.51-6.23,1.97-11.41-3.5-11.71h0c-.272-.012-.553-.013-.842-.004-4.325.143-10.312,2.697-14.418,7.844-2.88,3.72-7.33,6.36-10.83,6.43h-2.48c-1.341,0-2.81.375-4.277,1.035-.587.264-1.173.574-1.751.924-2.6,1.573-5.022,3.955-6.501,6.621-2.63,4.74-1.29,8.58,3,8.58h11.85c.268.008.488.074.658.189.085.057.157.127.217.207.178.24.237.575.166.967-.047.261-.153.547-.321.847-.67,1.2-2.08,2.18-3.18,2.21h-60.9c-.74.02-1.2-.4-1.18-1.09.02-.7.49-1.56,1.25-2.25s1.67-1.11,2.39-1.09h2.73c4.29,0,9.9-3.84,12.53-8.58s1.29-8.58-3-8.58h-12.91c-2.42,0-5.026.542-7.667,1.522-1.32.49-2.65,1.089-3.969,1.785-1.319.696-2.627,1.488-3.907,2.364s-2.53,1.835-3.732,2.865c-.601.515-1.19,1.048-1.764,1.596-1.149,1.097-2.241,2.259-3.255,3.471-1.522,1.818-2.872,3.752-3.986,5.756-5.94,10.69-2.9,19.36,6.78,19.36h68.23c.135.001.259.017.37.046.21.055.375.161.497.302.007.009.019.014.026.023.111.138.174.315.199.514.003.023.012.042.014.066.025.343-.076.758-.316,1.208-.64,1.19-2.04,2.2-3.16,2.26-1.31.01-2.88.57-4.38,1.56l-59.62,40.82c-2.295,1.595-4.215,3.638-5.511,5.73-1.296,2.093-1.969,4.235-1.769,6.03.131.705.412,1.305.822,1.785.685.801,1.733,1.27,3.057,1.345,2.12.12,4.76-.79,7.26-2.5l77.98-53.39c5.8-3.97,10.26-9.89,11.43-15.16l3.09-13.99c.88-3.66,3.9-7.73,7.87-10.57h0s0,0,0,0l.01.03c2.77-2.04,5.14-4.65,6.7-7.38Z"/>
    <path class="st1" d="M326.566,125.745h0c.906-1.674,1.457-3.31,1.628-4.797.013-.115.013-.225.022-.338.014-.179.033-.36.035-.534.007-.569-.047-1.111-.165-1.619-.193-.74-.239-1.557-.15-2.425.268-2.604,1.762-5.668,4.23-8.496l12.21-13.73c3.517-3.945,5.584-8.261,5.811-11.847.076-1.195-.053-2.309-.401-3.302l-9.86-28.18c-.62-1.77-2.33-2.68-4.69-2.49-2.35.18-5.12,1.44-7.58,3.45-3.437,2.86-5.586,6.578-5.666,9.486-.018.671.074,1.299.286,1.863l5.49,15.68c.35,1,1.27,1.56,2.55,1.56.669.019,1.045.409,1.069.992.015.35-.097.769-.349,1.219-.67,1.2-2.08,2.18-3.18,2.21h-68.23c-6.26-.06-14.15,3.61-20.66,9.63-6.51,6.01-10.64,13.44-10.81,19.46-.17,6.019,3.63,9.689,9.97,9.629h61.72c2.558.03,4.058,1.506,4.125,3.799.022.764-.115,1.619-.425,2.542-.336,1.042-.477,1.979-.455,2.812.095,3.61,3.256,5.271,6.985,5.117,5.809-.3,13.098-5.469,16.509-11.708l-.019.019s0-.001,0-.002ZM321.125,104.916c-.76.69-1.67,1.11-2.39,1.09h-60.91c-.669-.019-1.045-.409-1.069-.992-.015-.35.097-.769.349-1.219.67-1.2,2.08-2.18,3.18-2.21h60.91v-.009h0c.75-.021,1.2.399,1.18,1.089,0,0,0,0,0,0,0,0,0,0,0,0-.02.7-.5,1.56-1.25,2.25Z"/>
    <path class="st1" d="M348.445,133.135c2.86-3.69,7.29-6.3,10.75-6.34h61.72v-.02h0c9.68,0,22.34-8.67,28.28-19.36,4.831-8.709,3.712-16.075-2.102-18.506-1.322-.553-2.885-.854-4.678-.854h0s0,0,0,0h-68.23c-.02,0-.035-.007-.054-.008-.241-.015-.446-.075-.604-.181-.17-.115-.289-.278-.354-.477-.13-.399-.042-.944.292-1.544.66-1.2,2.08-2.18,3.18-2.21,1.28,0,2.83-.56,4.29-1.56l59.72-40.89c4.48-3.01,7.55-7.83,7.23-11.35-.23-2-1.6-3.26-3.75-3.45-.005,0-.011,0-.017,0-2.147-.174-4.86.735-7.433,2.49l-77.98,53.39c-5.8,3.97-10.26,9.88-11.42,15.15l-3.03,13.73c-.9,3.77-3.99,7.96-8.06,10.92-2.72,2.03-5.05,4.61-6.58,7.29-2.413,4.283-2.439,8.065-.443,10.112.025.025.055.045.08.069.423.415.939.747,1.533,1.001.348.149.723.27,1.128.358.379.082.774.146,1.202.17.274.012.556.013.846.003,4.347-.145,10.378-2.721,14.484-7.933ZM359.445,106.316c.375-.345.79-.622,1.201-.811.206-.094.41-.167.609-.214.198-.047.39-.07.57-.065h60.9l.01.01c1.07.03,1.39,1.01.72,2.21-.67,1.2-2.08,2.18-3.18,2.21h-60.9c-.74.02-1.2-.4-1.18-1.09.02-.7.49-1.56,1.25-2.25Z"/>
    <path class="st1" d="M765.095,94.366h0c-.27-3.93-3.01-6.27-7.33-6.27h-56.54c-.26-.05-.53-.08-.81-.09h-1.71c-.75.02-1.19-.4-1.18-1.09.02-.7.49-1.56,1.25-2.25.75-.69,1.66-1.11,2.38-1.09h22.66c4.29,0,9.9-3.84,12.53-8.58s1.29-8.58-3-8.58h-21.79c-3.43-.07-4.94-2.72-3.68-6.44,1.612-5.156-1.547-7.702-5.714-7.844-.278-.009-.56-.008-.846.004-1.089.056-2.231.284-3.389.657-1.93.623-3.907,1.651-5.766,2.97-1.116.791-2.189,1.687-3.185,2.662-.996.975-1.914,2.029-2.72,3.138-.537.739-1.024,1.502-1.45,2.282-1.46,2.72-2,5.34-1.49,7.38.81,2.84-.67,6.9-3.86,10.56l-3.3,3.67c-1.75,1.951-3.161,4.006-4.173,6.029-.289.578-.545,1.154-.767,1.723-.333.855-.59,1.696-.765,2.515-.234,1.091-.322,2.141-.255,3.123.27,3.93,3.01,6.27,7.33,6.27h4.68c.26.05.53.08.81.09h53.57c.75-.02,1.19.4,1.18,1.09-.02.7-.5,1.56-1.25,2.25-.76.69-1.67,1.11-2.39,1.09h-7.06c-1.341,0-2.81.375-4.277,1.035-.587.264-1.173.574-1.751.924-2.6,1.573-5.022,3.955-6.501,6.621-2.63,4.74-1.29,8.58,3,8.58h6.2c3.43.06,4.94,2.71,3.68,6.43-.107.344-.194.676-.26.997-.199.962-.216,1.82-.083,2.576.089.504.244.962.458,1.376.107.207.228.402.363.586.27.369.593.693.961.972.184.14.379.269.584.386.615.353,1.321.608,2.088.765.511.105,1.049.166,1.604.185.278.009.56.008.846-.004,5.81-.3,13.1-5.47,16.51-11.71,1.47-2.72,2-5.34,1.5-7.38-.81-2.84.67-6.9,3.86-10.56l3.299-3.669-.019.019s0,0,0,0h0c4.01-4.469,6.24-9.469,5.97-13.399Z"/>
    <path d="M257.825,106.005h60.91c.72.02,1.63-.4,2.39-1.09.75-.69,1.23-1.55,1.25-2.25.02-.69-.43-1.109-1.18-1.089h0v.009h0s-60.91,0-60.91,0c-1.1.03-2.51,1.01-3.18,2.21-.251.45-.363.869-.349,1.218.024.582.4.972,1.069.991Z"/>
    <path d="M321.125,104.915c-.76.69-1.67,1.11-2.39,1.09h-60.91c-.669-.019-1.044-.408-1.069-.991.024.583.4.973,1.069.992h60.91c.72.02,1.63-.4,2.39-1.09.75-.69,1.23-1.55,1.25-2.25,0,0,0,0,0,0-.02.7-.5,1.56-1.25,2.25Z"/>
    <path d="M358.195,108.566c-.02.69.44,1.11,1.18,1.09h60.9c1.1-.03,2.51-1.01,3.18-2.21s.35-2.18-.72-2.21l-.01-.01h-60.9c-.18-.005-.372.017-.57.065-.198.047-.403.12-.609.214-.411.189-.826.466-1.201.811-.76.69-1.23,1.55-1.25,2.25Z"/>
    <path d="M361.825,105.226c-.18-.005-.372.017-.57.065.198-.047.39-.07.57-.065h0Z"/>
    <path d="M359.375,109.656h0c-.74.02-1.2-.4-1.18-1.09.02-.7.49-1.56,1.25-2.25.375-.345.79-.622,1.201-.811-.411.189-.826.466-1.201.811-.76.69-1.23,1.55-1.25,2.25-.02.69.44,1.11,1.18,1.09Z"/>
    <polygon points="657.735 107.746 657.735 107.746 657.734 107.747 657.735 107.746"/>
    <polygon points="326.585 125.725 326.585 125.725 326.585 125.725 326.585 125.725"/>
    <path d="M788.005,105.797h0c-.3-4.31-2.4-7.75-5.68-9.8-.34-.26-.69-.51-1.06-.74-.34-.26-.69-.51-1.06-.74-.34-.26-.69-.51-1.06-.74-.34-.26-.69-.51-1.06-.74-.34-.26-.69-.51-1.06-.74-.34-.26-.69-.51-1.06-.74-.34-.26-.69-.51-1.06-.74-.34-.26-.69-.51-1.06-.74-.34-.26-.69-.51-1.06-.74-.34-.26-.69-.51-1.06-.74-.34-.26-.69-.51-1.06-.74-.34-.26-.69-.51-1.06-.74-.34-.26-.69-.51-1.06-.74-.34-.26-.69-.51-1.06-.74-.34-.26-.69-.51-1.06-.74-1.63-1.28-3.63-2.17-5.91-2.56,0-1.89-.44-3.67-1.36-5.23-.81-1.38-1.93-2.47-3.27-3.28-.33-.27-.69-.52-1.06-.74-.33-.27-.69-.52-1.06-.74-.33-.27-.69-.52-1.06-.74-.33-.27-.69-.52-1.06-.74-.33-.27-.69-.52-1.06-.74-.33-.27-.69-.52-1.06-.74-.33-.27-.69-.52-1.06-.74-.33-.27-.69-.52-1.06-.74-.33-.27-.69-.52-1.06-.74-.33-.27-.69-.52-1.06-.74-.33-.27-.69-.52-1.06-.74-.33-.27-.69-.52-1.06-.74-.33-.27-.69-.52-1.06-.74-.33-.27-.69-.52-1.06-.74-.33-.27-.69-.52-1.06-.74-1.8-1.45-4.12-2.27-6.75-2.27h-6.63c-.19-.14-.37-.27-.57-.4-.33-.27-.69-.51-1.06-.74-.33-.27-.69-.51-1.06-.74-.33-.27-.69-.51-1.06-.74-.33-.27-.69-.51-1.06-.74-.33-.27-.69-.51-1.06-.74-.33-.27-.69-.51-1.06-.74-.33-.27-.69-.51-1.06-.74-.33-.27-.69-.51-1.06-.74-.33-.27-.69-.51-1.06-.74-.33-.27-.69-.51-1.06-.74-.33-.27-.69-.51-1.06-.74-.33-.27-.69-.51-1.06-.74-.33-.27-.69-.51-1.06-.74-.33-.27-.69-.51-1.06-.74-.33-.27-.69-.51-1.06-.74-2.22-1.77-5.19-2.76-8.51-2.76-.24,0-.48,0-.79.02-7.83.41-17.06,6.79-21.47,14.86-2.21,4.1-2.91,8.14-2.04,11.67.013.047.027.09.04.13.07.56-.48,2.61-2.54,4.97l-3.3,3.67c-1.54,1.71-2.85,3.49-3.93,5.29-.21-.15-.41-.29-.63-.43-.34-.26-.69-.51-1.06-.74-.34-.26-.69-.51-1.06-.74-1.62-1.26-3.61-2.12-5.86-2.52,0-1.9-.44-3.68-1.36-5.25-.81-1.38-1.93-2.47-3.27-3.28-.33-.27-.69-.52-1.06-.74-.33-.27-.69-.52-1.06-.74-.33-.27-.69-.52-1.06-.74-.33-.27-.69-.52-1.06-.74-.33-.27-.69-.52-1.06-.74-.33-.27-.69-.52-1.06-.74-.33-.27-.69-.52-1.06-.74-.33-.27-.69-.52-1.06-.74-.33-.27-.69-.52-1.06-.74-.33-.27-.69-.52-1.06-.74-.33-.27-.69-.52-1.06-.74-.33-.27-.69-.52-1.06-.74-.33-.27-.69-.52-1.06-.74-.33-.27-.69-.52-1.06-.74-.33-.27-.69-.52-1.06-.74-1.8-1.45-4.12-2.27-6.75-2.27h-6.63c-.19-.14-.37-.27-.57-.4-.33-.27-.69-.51-1.06-.74-.33-.27-.69-.51-1.06-.74-.33-.27-.69-.51-1.06-.74-.33-.27-.69-.51-1.06-.74-.33-.27-.69-.51-1.06-.74-.33-.27-.69-.51-1.06-.74-.33-.27-.69-.51-1.06-.74-.33-.27-.69-.51-1.06-.74-.33-.27-.69-.51-1.06-.74-.33-.27-.69-.51-1.06-.74-.33-.27-.69-.51-1.06-.74-.33-.27-.69-.51-1.06-.74-.33-.27-.69-.51-1.06-.74-.33-.27-.69-.51-1.06-.74-.33-.27-.69-.51-1.06-.74-2.22-1.77-5.19-2.76-8.51-2.76-.24,0-.48,0-.79.02-7.83.41-17.06,6.79-21.47,14.86-1.87,3.47-2.65,6.89-2.32,10.01-.31-.24-.63-.46-.96-.67-1.87-1.49-4.27-2.39-7-2.54-.24-.01-.48-.02-.72-.02-6.94,0-14.59,3.97-19.55,10.18-2.02,2.61-4.85,4.05-6.15,4.1h-2.41c-6.44,0-14.08,5.01-17.77,11.66-1.18,2.13-1.87,4.28-2.05,6.33-.18-.45-.39-.9-.64-1.32-.81-1.38-1.93-2.47-3.27-3.28-.33-.27-.69-.52-1.06-.74-.33-.27-.69-.52-1.06-.74-.33-.27-.69-.52-1.06-.74-.33-.27-.69-.52-1.06-.74-.33-.27-.69-.52-1.06-.74-.33-.27-.69-.52-1.06-.74-.33-.27-.69-.52-1.06-.74-.33-.27-.69-.52-1.06-.74-.33-.27-.69-.52-1.06-.74-.33-.27-.69-.52-1.06-.74-.33-.27-.69-.52-1.06-.74-.33-.27-.69-.52-1.06-.74-.33-.27-.69-.52-1.06-.74-.33-.27-.69-.52-1.06-.74-.33-.27-.69-.52-1.06-.74-1.8-1.45-4.12-2.27-6.75-2.27h-12.91c-6.53,0-13.94,3.02-20.45,7.84-.1-.07-.2-.13-.3-.2-.34-.26-.69-.51-1.06-.74-.34-.26-.69-.51-1.06-.74-.34-.26-.69-.51-1.06-.74-.34-.26-.69-.51-1.06-.74-.34-.26-.69-.51-1.06-.74-.34-.26-.69-.51-1.06-.74-2.69-2.08-6.19-3.19-10.25-3.19h-16.62l35.11-24.04c5.34-3.59,10.46-10.2,9.86-16.87,0-.05,0-.1-.01-.15-.36-3.17-2.02-5.72-4.5-7.24-.33-.27-.69-.52-1.06-.75-.33-.27-.69-.52-1.06-.74-.33-.27-.69-.52-1.06-.74-.33-.27-.69-.52-1.06-.74-.33-.27-.69-.52-1.06-.74-.33-.27-.69-.52-1.06-.74-.33-.27-.69-.52-1.06-.74-.33-.27-.69-.52-1.06-.74-.33-.27-.69-.52-1.06-.74-.33-.27-.69-.52-1.06-.74-.33-.27-.69-.52-1.06-.74-.33-.27-.69-.52-1.06-.74-.33-.27-.69-.52-1.06-.74-.33-.27-.69-.52-1.06-.74-.34-.27-.7-.52-1.07-.75-1.53-1.25-3.49-2.04-5.73-2.23-.35-.03-.71-.05-1.08-.05-3.27,0-6.92,1.26-10.27,3.56l-67.4,46.14-3.41-9.73c-.75-2.15-2.17-3.85-4.03-4.98-.33-.27-.69-.52-1.06-.74-.33-.27-.69-.52-1.06-.74-.33-.27-.69-.52-1.06-.74-.33-.27-.69-.52-1.06-.74-.33-.27-.69-.52-1.06-.74-.33-.27-.69-.52-1.06-.74-.33-.27-.69-.52-1.06-.74-.33-.27-.69-.52-1.06-.74-.33-.27-.69-.52-1.06-.74-.33-.27-.69-.52-1.06-.74-.33-.27-.69-.52-1.06-.74-.33-.27-.69-.52-1.06-.74-.33-.27-.69-.52-1.06-.74-.33-.27-.69-.52-1.06-.74-.33-.27-.69-.52-1.06-.74-1.8-1.46-4.15-2.28-6.79-2.28-.34,0-.7.01-1.06.04-3.6.28-7.48,1.98-10.96,4.82-6.32,5.26-9.2,12.48-7.18,17.99l4.77,13.64h-61.94c-7.79,0-16.98,4.2-24.58,11.23-7.75,7.17-12.51,16.02-12.73,23.7-.13,4.51,1.27,8.41,4.06,11.28.78.8,1.66,1.5,2.6,2.09.34.26.69.51,1.06.74.34.26.69.51,1.06.74.34.26.69.51,1.06.74.34.26.69.51,1.06.74.34.26.69.51,1.06.74.34.26.69.51,1.06.74.34.26.69.51,1.06.74.34.26.69.51,1.06.74.34.26.69.51,1.06.74.34.26.69.51,1.06.74.34.26.69.51,1.06.74.34.26.69.51,1.06.74.34.26.69.51,1.06.74.34.26.69.51,1.06.74.34.26.69.51,1.06.74,2.72,2.08,6.19,3.18,10.2,3.18h46.71c.19.13.37.27.57.4.33.27.69.51,1.06.74.33.27.69.51,1.06.74.33.27.69.51,1.06.74.33.27.69.51,1.06.74.33.27.69.51,1.06.74.33.27.69.51,1.06.74.33.27.69.51,1.06.74.33.27.69.51,1.06.74.33.27.69.51,1.06.74.33.27.69.51,1.06.74.33.27.69.51,1.06.74.33.27.69.51,1.06.74.33.27.69.51,1.06.74.33.27.69.51,1.06.74.33.27.69.51,1.06.74,2.22,1.78,5.19,2.76,8.51,2.76.24,0,.48,0,.79-.02,3.1-.16,6.41-1.27,9.55-3.03.19.14.39.28.59.41.33.27.69.51,1.06.74.33.27.69.51,1.06.74.33.27.69.51,1.06.74.33.27.69.51,1.06.74.34.28.71.53,1.09.77,1.87,1.49,4.27,2.37,7,2.53.24.01.48.02.72.02,7,0,14.69-4.01,19.61-10.27,1.99-2.56,4.85-4,6-4.02h61.72c6.53,0,13.94-3.02,20.45-7.84.1.07.2.13.3.2.34.26.69.51,1.06.74.34.26.69.51,1.06.74.34.26.69.51,1.06.74.34.26.69.51,1.06.74.34.26.69.51,1.06.74.34.26.69.51,1.06.74,2.69,2.08,6.2,3.19,10.26,3.19h16.61l-35.07,24.01c-5.43,3.77-10.57,10.59-9.82,17.35.02.15.04.3.07.45.53,2.85,2.16,5.13,4.48,6.53.33.27.68.52,1.06.74.33.27.69.52,1.06.74.33.27.68.52,1.06.74.33.27.69.52,1.06.74.33.27.68.52,1.06.74.33.27.69.52,1.06.74.33.27.68.52,1.06.74.33.27.69.52,1.06.74.33.27.68.52,1.06.74.33.27.68.52,1.06.74.33.27.69.52,1.06.74.33.27.68.52,1.06.74.33.27.69.52,1.06.74.33.27.68.52,1.06.74.33.27.69.52,1.06.74,1.62,1.3,3.68,2.09,6.02,2.23.23.01.47.02.71.02,3.27,0,6.92-1.26,10.27-3.56l77.98-53.39c7.08-4.84,12.4-12.05,13.9-18.81l3.08-13.93v-.02c.26.19.52.37.79.54.34.27.69.51,1.06.74.34.27.69.51,1.06.74.34.27.69.51,1.06.74.34.27.69.51,1.06.74,2.28,1.8,5.28,2.83,8.75,2.83h4.25c.32.04.65.07.98.08h7.57c.06,1.77.49,3.44,1.36,4.9.81,1.38,1.93,2.47,3.27,3.28.33.27.69.52,1.06.74.33.27.69.52,1.06.74.33.27.69.52,1.06.74.33.27.69.52,1.06.74.33.27.69.52,1.06.74.33.27.69.52,1.06.74.33.27.69.52,1.06.74.33.27.69.52,1.06.74.28.23.58.44.88.63.36,2.05,1.21,3.56,1.89,4.48.8,1.09,1.81,2.01,2.98,2.74.33.27.69.51,1.06.74.33.27.69.51,1.06.74.33.27.69.51,1.06.74.33.27.69.51,1.06.74.33.27.69.51,1.06.74.33.27.69.51,1.06.74.33.27.69.51,1.06.74.33.27.69.51,1.06.74.33.27.69.51,1.06.74.33.27.69.51,1.06.74.33.27.69.51,1.06.74.33.27.69.51,1.06.74.33.27.69.51,1.06.74.33.27.69.51,1.06.74.33.27.69.51,1.06.74,2.22,1.77,5.19,2.76,8.51,2.76.24,0,.48,0,.79-.02,7.84-.41,17.06-6.79,21.47-14.86,2.21-4.1,2.92-8.13,2.04-11.67-.013-.047-.027-.093-.04-.14-.07-.56.48-2.61,2.54-4.97l3.3-3.67c1.54-1.71,2.85-3.49,3.93-5.29.21.15.41.29.63.43.34.26.69.51,1.06.74.34.26.69.51,1.06.74,2.27,1.76,5.23,2.77,8.65,2.77h4.25c.32.04.65.07.98.08h7.57c.06,1.77.49,3.44,1.36,4.91.81,1.38,1.93,2.47,3.27,3.28.33.27.69.52,1.06.74.33.27.69.52,1.06.74.33.27.69.52,1.06.74.33.27.69.52,1.06.74.33.27.69.52,1.06.74.33.27.69.52,1.06.74.33.27.69.52,1.06.74.33.27.69.52,1.06.74.28.23.58.44.88.63.36,2.05,1.21,3.56,1.89,4.48.8,1.09,1.81,2.01,2.98,2.74.33.27.69.51,1.06.74.33.27.69.51,1.06.74.33.27.69.51,1.06.74.33.27.69.51,1.06.74.33.27.69.51,1.06.74.33.27.69.51,1.06.74.33.27.69.51,1.06.74.33.27.69.51,1.06.74.33.27.69.51,1.06.74.33.27.69.51,1.06.74.33.27.69.51,1.06.74.33.27.69.51,1.06.74.33.27.69.51,1.06.74.33.27.69.51,1.06.74.33.27.69.51,1.06.74,2.22,1.77,5.19,2.76,8.51,2.76.24,0,.48,0,.79-.02,7.84-.41,17.06-6.79,21.47-14.86,2.21-4.1,2.92-8.13,2.04-11.67-.013-.047-.027-.093-.04-.14-.07-.56.48-2.61,2.54-4.97l3.3-3.67c5.15-5.73,7.88-12.23,7.49-17.82l.09.02ZM326.585,125.725h0,0s0,.002-.001.002h.001c-3.41,6.239-10.7,11.409-16.51,11.709-3.73.154-6.891-1.507-6.985-5.118-.022-.833.12-1.77.455-2.813.31-.922.447-1.777.425-2.541-.067-2.292-1.567-3.768-4.125-3.798h-61.72c-6.34.06-10.14-3.61-9.97-9.63h0c.17-6.021,4.3-13.451,10.81-19.461,6.51-6.02,14.4-9.69,20.66-9.63h68.23c1.1-.03,2.51-1.01,3.18-2.21.251-.45.363-.869.349-1.218-.024-.583-.4-.972-1.069-.991-1.28,0-2.2-.56-2.55-1.56l-5.49-15.68c-.212-.564-.304-1.193-.286-1.864.079-2.908,2.228-6.627,5.666-9.487,2.46-2.01,5.23-3.27,7.58-3.45,2.36-.19,4.07.72,4.69,2.49l9.86,28.18c.348.993.476,2.107.401,3.303-.227,3.586-2.293,7.903-5.811,11.848l-12.21,13.73c-2.467,2.827-3.962,5.891-4.23,8.495-.089.868-.042,1.684.15,2.424.118.508.172,1.05.165,1.62-.002.174-.021.355-.035.534-.009.113-.009.223-.022.338-.171,1.487-.721,3.122-1.627,4.797l.019-.019s0,0,0,0ZM420.915,126.775v.02h-61.72c-3.46.04-7.89,2.65-10.75,6.34-4.106,5.213-10.137,7.788-14.484,7.933-.29.01-.572.009-.846-.003-.428-.024-.823-.088-1.202-.17-.405-.087-.779-.209-1.128-.358-.593-.254-1.109-.586-1.533-1.001-.025-.025-.056-.044-.08-.069-1.997-2.046-1.971-5.828.443-10.112,1.53-2.68,3.86-5.26,6.58-7.29,4.07-2.96,7.16-7.15,8.06-10.92l3.03-13.73c1.16-5.27,5.62-11.18,11.42-15.15l77.98-53.39c2.573-1.756,5.286-2.664,7.433-2.49.005,0,.011,0,.017,0,2.15.19,3.52,1.45,3.75,3.45.32,3.52-2.75,8.34-7.23,11.35l-59.72,40.89c-1.46,1-3.01,1.56-4.29,1.56-1.1.03-2.52,1.01-3.18,2.21-.335.6-.423,1.145-.293,1.544.065.199.184.362.354.477.157.106.363.166.604.181.019.001.034.008.054.008h68.23c1.794,0,3.356.301,4.678.854,5.814,2.432,6.933,9.797,2.102,18.506-5.94,10.69-18.6,19.36-28.28,19.36ZM564.375,92.926h0s0,0,0,0l-.01-.03c-3.97,2.84-6.99,6.91-7.87,10.57l-3.09,13.99c-1.17,5.27-5.63,11.19-11.43,15.16l-77.98,53.39c-2.5,1.71-5.14,2.62-7.26,2.5-1.325-.075-2.373-.545-3.058-1.345-.411-.48-.691-1.08-.823-1.785-.2-1.795.473-3.937,1.769-6.03s3.216-4.135,5.511-5.73l59.62-40.82c1.5-.99,3.07-1.55,4.38-1.56,1.12-.06,2.52-1.07,3.16-2.26.24-.45.341-.865.316-1.208-.002-.024-.011-.043-.014-.066-.025-.199-.088-.376-.199-.514-.007-.009-.018-.014-.026-.023-.122-.141-.287-.247-.497-.302-.112-.029-.235-.045-.37-.046h-68.23c-9.68,0-12.72-8.67-6.78-19.36,1.114-2.004,2.464-3.938,3.986-5.756,1.015-1.212,2.106-2.374,3.255-3.471.575-.549,1.163-1.081,1.764-1.596,1.202-1.03,2.452-1.989,3.732-2.865s2.588-1.668,3.907-2.364c1.319-.696,2.648-1.295,3.969-1.785,2.641-.98,5.247-1.522,7.667-1.522h12.91c4.29,0,5.63,3.84,3,8.58s-8.24,8.58-12.53,8.58h-2.73c-.72-.02-1.63.4-2.39,1.09s-1.23,1.55-1.25,2.25c-.02.69.44,1.11,1.18,1.09h60.9c1.1-.03,2.51-1.01,3.18-2.21.168-.3.273-.586.321-.847.071-.392.012-.727-.166-.967-.059-.08-.132-.149-.217-.207-.17-.115-.391-.182-.658-.189h-11.85c-4.29,0-5.63-3.84-3-8.58,1.479-2.666,3.902-5.048,6.502-6.621.578-.35,1.164-.659,1.751-.924,1.467-.66,2.937-1.035,4.277-1.035h2.48c3.5-.07,7.95-2.71,10.83-6.43,4.106-5.147,10.094-7.701,14.418-7.844.288-.01.569-.008.842.004,5.47.3,7.01,5.48,3.5,11.71-1.56,2.73-3.93,5.34-6.7,7.38ZM662.305,100.864c-.256.575-.546,1.154-.868,1.734-.161.29-.33.581-.506.871-.353.581-.738,1.161-1.153,1.737-.622.865-1.311,1.721-2.063,2.559l.02-.02h0,0s-3.299,3.67-3.299,3.67c-3.19,3.66-4.67,7.72-3.86,10.56.5,2.04-.03,4.66-1.5,7.38-.213.39-.441.776-.684,1.157-1.211,1.904-2.768,3.679-4.507,5.212-.348.306-.703.603-1.064.889-.722.572-1.469,1.101-2.229,1.581-1.14.719-2.31,1.325-3.475,1.793-.777.312-1.552.563-2.314.745-.762.182-1.511.296-2.238.333-.571.024-1.129.005-1.664-.057-.535-.062-1.049-.166-1.53-.315-.241-.074-.474-.159-.698-.255-.672-.288-1.264-.674-1.746-1.16-.481-.486-.852-1.072-1.082-1.76-.153-.458-.244-.962-.264-1.512-.01-.275-.002-.561.026-.858.054-.595.184-1.236.399-1.924,1.26-3.72-.25-6.37-3.68-6.43h-6.2c-4.29,0-5.63-3.84-3-8.58,1.315-2.37,3.375-4.515,5.643-6.068.567-.388,1.147-.739,1.731-1.048.584-.308,1.173-.574,1.759-.791,1.17-.434,2.325-.674,3.398-.674h7.06c.72.02,1.63-.4,2.39-1.09.75-.69,1.23-1.55,1.25-2.25.01-.69-.43-1.11-1.18-1.09h-53.57c-.28-.01-.55-.04-.81-.09h-4.68c-.54,0-1.055-.037-1.544-.108-.733-.107-1.407-.294-2.016-.554-.406-.174-.782-.38-1.128-.618-.346-.238-.661-.507-.944-.807-.283-.299-.533-.629-.749-.987-.324-.537-.57-1.138-.734-1.798-.109-.44-.182-.906-.215-1.398-.051-.737-.013-1.511.107-2.313.08-.534.197-1.081.35-1.636.076-.278.161-.557.255-.839.188-.563.41-1.134.666-1.709s.545-1.154.866-1.733c.964-1.74,2.215-3.488,3.715-5.16l3.3-3.67c3.19-3.66,4.67-7.72,3.86-10.56-.191-.765-.235-1.612-.138-2.514.097-.903.335-1.862.707-2.852.248-.66.555-1.334.92-2.014.213-.39.441-.776.684-1.157,1.211-1.904,2.768-3.679,4.507-5.212.348-.306.703-.603,1.064-.889.722-.572,1.469-1.101,2.229-1.581,1.14-.719,2.31-1.325,3.475-1.793.777-.312,1.552-.563,2.314-.745s1.511-.296,2.238-.333c.571-.024,1.129-.005,1.664.057.535.062,1.049.166,1.53.315.241.074.474.159.698.255,1.345.575,2.368,1.544,2.828,2.92.153.458.244.962.264,1.512.01.275.002.561-.026.858-.054.595-.184,1.236-.399,1.924-1.26,3.72.25,6.37,3.68,6.44h21.79c4.29,0,5.63,3.84,3,8.58-1.315,2.37-3.375,4.515-5.643,6.068-.567.388-1.147.739-1.731,1.048-.584.308-1.173.574-1.759.791-1.17.434-2.325.674-3.398.674h-22.66c-.54-.015-1.187.217-1.793.626-.202.136-.4.292-.587.464-.76.69-1.23,1.55-1.25,2.25-.01.69.43,1.11,1.18,1.09h1.71c.28.01.55.04.81.09h56.54c4.32,0,7.06,2.34,7.33,6.27.135,1.965-.355,4.198-1.38,6.497ZM759.145,107.746h-.001s0,0,0,0h0s0,0,0,0h0s-3.299,3.67-3.299,3.67c-3.19,3.66-4.67,7.72-3.86,10.56.5,2.04-.03,4.66-1.5,7.38-3.41,6.24-10.7,11.41-16.51,11.71-.286.012-.568.013-.846.004-.556-.019-1.093-.08-1.604-.185-.766-.157-1.472-.412-2.088-.765-.205-.118-.4-.247-.584-.386-.368-.28-.691-.604-.961-.972-.135-.184-.256-.38-.363-.586-.214-.413-.369-.872-.458-1.376-.133-.756-.115-1.614.083-2.576.066-.321.152-.653.26-.997,1.26-3.72-.25-6.37-3.68-6.43h-6.2c-4.29,0-5.63-3.84-3-8.58,1.479-2.666,3.902-5.048,6.502-6.621.578-.35,1.164-.659,1.751-.924,1.467-.66,2.937-1.035,4.277-1.035h7.06c.72.02,1.63-.4,2.39-1.09.75-.69,1.23-1.55,1.25-2.25.01-.69-.43-1.11-1.18-1.09h-53.57c-.28-.01-.55-.04-.81-.09h-4.68c-4.32,0-7.06-2.34-7.33-6.27-.068-.982.021-2.032.255-3.123.175-.818.432-1.66.765-2.515.222-.57.479-1.145.767-1.723,1.011-2.023,2.422-4.078,4.172-6.029l3.3-3.67c3.19-3.66,4.67-7.72,3.86-10.56-.51-2.04.03-4.66,1.49-7.38.426-.78.913-1.543,1.45-2.282.806-1.109,1.724-2.163,2.72-3.138.996-.975,2.069-1.871,3.185-2.662,1.859-1.319,3.836-2.347,5.766-2.97,1.158-.374,2.299-.601,3.389-.657.286-.012.568-.013.846-.004,4.167.142,7.327,2.687,5.714,7.844-1.26,3.72.25,6.37,3.68,6.44h21.79c4.29,0,5.63,3.84,3,8.58s-8.24,8.58-12.53,8.58h-22.66c-.72-.02-1.63.4-2.38,1.09-.76.69-1.23,1.55-1.25,2.25-.01.69.43,1.11,1.18,1.09h1.71c.28.01.55.04.81.09h56.54c4.32,0,7.06,2.34,7.33,6.27.27,3.93-1.96,8.929-5.969,13.399l.019-.019Z"/>
    <polygon points="759.145 107.746 759.144 107.747 759.145 107.746 759.145 107.746"/>
    <path d="M582.474,65.86c.248-.66.555-1.334.92-2.014-.365.68-.672,1.354-.92,2.014Z"/>
    <path d="M569.734,102.042c-.324-.537-.57-1.138-.734-1.798.164.66.411,1.261.734,1.798Z"/>
    <path d="M570.483,103.029c-.283-.299-.533-.629-.749-.987.216.358.466.687.749.987Z"/>
    <path d="M572.555,104.454c-.406-.174-.782-.38-1.128-.618.346.238.723.445,1.128.618Z"/>
    <polygon points="657.734 107.747 657.735 107.746 657.715 107.766 657.715 107.766 657.734 107.747"/>
    <path d="M574.571,105.008c-.733-.107-1.407-.294-2.016-.554.609.26,1.282.447,2.016.554Z"/>
    <path d="M581.767,68.712c.097-.903.335-1.862.707-2.852-.372.99-.61,1.949-.707,2.852Z"/>
    <path d="M532.976,90.065c.578-.35,1.164-.659,1.751-.924-.587.264-1.173.574-1.751.924Z"/>
    <path d="M479.775,88.096c-2.42,0-5.026.542-7.667,1.522,2.641-.98,5.247-1.522,7.667-1.522h0Z"/>
    <path d="M460.501,96.633c1.202-1.03,2.452-1.989,3.732-2.865-1.279.876-2.53,1.835-3.732,2.865Z"/>
    <path d="M539.005,88.106c-1.341,0-2.81.375-4.277,1.035,1.467-.66,2.937-1.035,4.277-1.035h0Z"/>
    <path d="M527.372,127.165c-.122-.141-.287-.247-.497-.302.211.055.375.161.497.302Z"/>
    <path d="M455.481,101.7c1.015-1.212,2.106-2.374,3.255-3.471-1.149,1.097-2.241,2.259-3.255,3.471Z"/>
    <path d="M468.139,91.403c1.319-.696,2.648-1.295,3.969-1.785-1.32.49-2.65,1.089-3.969,1.785Z"/>
    <path d="M460.135,173.616l59.62-40.82c1.5-.99,3.07-1.55,4.38-1.56,1.12-.06,2.52-1.07,3.16-2.26.24-.45.341-.865.316-1.208.025.343-.076.758-.316,1.208-.64,1.19-2.04,2.2-3.16,2.26-1.31.01-2.88.57-4.38,1.56l-59.62,40.82c-2.295,1.595-4.215,3.638-5.511,5.73,1.296-2.092,3.216-4.135,5.511-5.73Z"/>
    <path d="M527.398,127.188c.111.138.174.315.199.514-.025-.199-.088-.376-.199-.514Z"/>
    <rect x="564.37" y="92.896" width="0" height=".032" transform="translate(-.364 183.582) rotate(-18.47)"/>
    <path d="M552.315,81.676c4.106-5.147,10.093-7.701,14.418-7.844-4.325.143-10.312,2.697-14.418,7.844-2.88,3.72-7.33,6.36-10.83,6.43h0c3.5-.07,7.95-2.71,10.83-6.43Z"/>
    <path d="M454.624,179.346c-1.296,2.093-1.969,4.235-1.769,6.03.131.705.412,1.305.823,1.785-.411-.48-.691-1.08-.822-1.785-.2-1.795.472-3.938,1.769-6.03Z"/>
    <path d="M526.505,126.816c.135.001.259.017.37.046-.112-.029-.235-.045-.37-.046h0Z"/>
    <path d="M541.325,105.266c.268.008.488.074.658.189-.17-.115-.391-.182-.658-.189h0Z"/>
    <path d="M526.475,96.686c1.479-2.666,3.902-5.048,6.501-6.621-2.6,1.573-5.022,3.955-6.502,6.621-2.63,4.74-1.29,8.58,3,8.58h0c-4.29,0-5.63-3.84-3-8.58Z"/>
    <path d="M542.199,105.662c.178.24.237.575.166.967.071-.392.012-.727-.166-.967Z"/>
    <path d="M542.045,107.476c.167-.3.273-.586.321-.847-.047.261-.153.547-.321.847-.67,1.2-2.08,2.18-3.18,2.21h0c1.1-.03,2.51-1.01,3.18-2.21Z"/>
    <path d="M451.495,107.456c1.114-2.004,2.464-3.938,3.986-5.756-1.522,1.818-2.872,3.752-3.986,5.756-5.94,10.69-2.9,19.36,6.78,19.36h0c-9.68,0-12.72-8.67-6.78-19.36Z"/>
    <path d="M330.315,80.025c-1.28,0-2.2-.56-2.55-1.56l-5.49-15.68c-.212-.564-.304-1.192-.286-1.863-.018.671.074,1.299.286,1.864l5.49,15.68c.35,1,1.27,1.56,2.55,1.56.669.019,1.044.408,1.069.991-.024-.583-.4-.973-1.069-.992Z"/>
    <path d="M310.075,137.435c-3.729.154-6.891-1.507-6.985-5.117.094,3.611,3.256,5.272,6.985,5.118,5.81-.3,13.1-5.47,16.51-11.71h-.001c-3.411,6.24-10.699,11.409-16.509,11.709Z"/>
    <path d="M332.165,107.535c-2.468,2.828-3.962,5.892-4.23,8.496.268-2.604,1.763-5.667,4.23-8.495l12.21-13.73c3.518-3.945,5.584-8.262,5.811-11.848-.227,3.586-2.293,7.902-5.811,11.847l-12.21,13.73Z"/>
    <path d="M299.845,123.165h-61.72c-6.34.06-10.14-3.61-9.97-9.629h0c-.17,6.02,3.63,9.69,9.97,9.63h61.72c2.557.03,4.057,1.506,4.125,3.798-.067-2.293-1.567-3.769-4.125-3.799Z"/>
    <path d="M326.566,125.745c.906-1.675,1.456-3.31,1.627-4.797-.171,1.487-.722,3.123-1.628,4.798h0Z"/>
    <path d="M328.25,120.075c-.002.174-.021.355-.035.534.014-.179.033-.36.035-.534Z"/>
    <path d="M329.253,139.536c-.025-.025-.056-.044-.08-.069.025.025.055.045.08.069Z"/>
    <path d="M331.913,140.895c-.405-.088-.779-.209-1.128-.358.348.149.723.271,1.128.358Z"/>
    <path d="M374.185,88.055c-.02,0-.035-.007-.054-.008.019.001.034.008.054.008h0Z"/>
    <path d="M447.093,88.909c5.814,2.432,6.933,9.797,2.102,18.506-5.94,10.69-18.6,19.36-28.28,19.36h0v.02h-61.72c-3.46.04-7.89,2.65-10.75,6.34-4.106,5.213-10.137,7.788-14.484,7.933,4.347-.145,10.378-2.721,14.484-7.933,2.86-3.69,7.29-6.3,10.75-6.34h61.72v-.02c9.68,0,22.34-8.67,28.28-19.36,4.831-8.709,3.712-16.075-2.102-18.506Z"/>
    <path d="M447.885,29.835c.32,3.52-2.75,8.34-7.23,11.35l-59.72,40.89c-1.46,1-3.01,1.56-4.29,1.56-1.1.03-2.52,1.01-3.18,2.21-.335.6-.422,1.145-.292,1.544-.13-.399-.042-.944.293-1.544.66-1.2,2.08-2.18,3.18-2.21,1.28,0,2.83-.56,4.29-1.56l59.72-40.89c4.48-3.01,7.55-7.83,7.23-11.35-.23-2-1.6-3.26-3.75-3.45-.005,0-.011,0-.017,0,.005,0,.011,0,.017,0,2.15.19,3.52,1.45,3.75,3.45Z"/>
    <polygon points="442.415 88.055 442.415 88.055 442.415 88.055 442.415 88.055"/>
    <path d="M733.129,141.07c-.556-.019-1.093-.08-1.604-.185.511.105,1.049.166,1.604.185Z"/>
    <polygon points="759.144 107.748 759.145 107.746 759.126 107.765 759.125 107.766 759.144 107.748"/>
    <path d="M727.53,138.174c-.214-.413-.369-.872-.458-1.376.089.504.244.962.458,1.376Z"/>
    <path d="M731.525,140.885c-.766-.157-1.472-.412-2.088-.765.615.353,1.321.608,2.088.765Z"/>
    <path d="M721.036,111.595c.578-.35,1.164-.659,1.751-.924-.587.264-1.173.574-1.751.924Z"/>
    <path d="M727.065,109.636c-1.341,0-2.81.375-4.277,1.035,1.467-.66,2.937-1.035,4.277-1.035h0Z"/>
    <path d="M671.215,93.209c.222-.57.479-1.145.767-1.723-.289.578-.545,1.154-.767,1.723Z"/>
    <path d="M679.455,81.786c3.19-3.66,4.67-7.72,3.86-10.56-.51-2.04.03-4.66,1.49-7.38.426-.78.913-1.543,1.45-2.282-.537.739-1.024,1.502-1.45,2.282-1.46,2.72-2,5.34-1.49,7.38.81,2.84-.67,6.9-3.86,10.56l-3.3,3.67c-1.75,1.951-3.161,4.006-4.172,6.029,1.011-2.023,2.423-4.078,4.173-6.029l3.3-3.67Z"/>
    <path d="M670.195,98.846c-.068-.982.021-2.032.255-3.123-.234,1.091-.322,2.141-.255,3.123.27,3.93,3.01,6.27,7.33,6.27h0c-4.32,0-7.06-2.34-7.33-6.27Z"/>
    <path d="M682.205,105.116c.26.05.53.08.81.09h0c-.28-.01-.55-.04-.81-.09h0Z"/>
    <path d="M702.161,52.133c-.278-.009-.56-.008-.846.004-1.089.056-2.231.284-3.389.657,1.158-.374,2.3-.601,3.389-.657.286-.012.568-.013.846-.004Z"/>
    <path d="M692.16,55.764c1.859-1.319,3.836-2.347,5.766-2.97-1.93.623-3.907,1.651-5.766,2.97Z"/>
    <path d="M736.515,108.546c.75-.69,1.23-1.55,1.25-2.25.01-.69-.43-1.11-1.18-1.09h0c.75-.02,1.19.4,1.18,1.09-.02.7-.5,1.56-1.25,2.25-.76.69-1.67,1.11-2.39,1.09h0c.72.02,1.63-.4,2.39-1.09Z"/>
    <path d="M688.975,58.426c.996-.975,2.069-1.871,3.185-2.662-1.116.791-2.189,1.687-3.185,2.662Z"/>
    <path d="M714.535,118.216c1.479-2.666,3.902-5.048,6.501-6.621-2.6,1.573-5.022,3.955-6.502,6.621-2.63,4.74-1.29,8.58,3,8.58h0c-4.29,0-5.63-3.84-3-8.58Z"/>
    <path d="M727.893,138.761c.27.369.593.693.961.972-.368-.28-.691-.604-.961-.972Z"/>
    <path d="M670.45,95.723c.175-.818.432-1.66.765-2.515-.333.855-.59,1.696-.765,2.515Z"/>
    <path d="M723.735,126.796h0c3.43.06,4.94,2.71,3.68,6.43-.107.344-.194.676-.26.997.066-.321.153-.653.26-.997,1.26-3.72-.25-6.37-3.68-6.43Z"/>
    <path d="M727.155,134.223c-.199.962-.216,1.82-.083,2.576-.133-.756-.115-1.614.083-2.576Z"/>
  </g>
</svg>